<svg xmlns="http://www.w3.org/2000/svg" width="220.387" height="92.085" viewBox="0 0 220.387 92.085">
  <g id="logo" transform="translate(-241.401 -290)">
    <g id="Group_35" data-name="Group 35" transform="translate(241.401 290)">
      <path id="Path_290" data-name="Path 290" d="M287.444,382.085a46.043,46.043,0,1,1,46.042-46.043A46.1,46.1,0,0,1,287.444,382.085Zm0-84.686a38.643,38.643,0,1,0,38.643,38.643A38.687,38.687,0,0,0,287.444,297.4Z" transform="translate(-241.401 -290)" fill="#001d4b"/>
    </g>
    <path id="Path_291" data-name="Path 291" d="M366.12,382.4H350.694v23.14h7.713V390.112h7.713v15.426h7.713V382.4Z" transform="translate(-59.394 -50.213)" fill="#00adee"/>
    <path id="Path_292" data-name="Path 292" d="M298.544,348.61v7.713h-7.713V348.61h-7.713v23.14h7.713v-7.713h7.713v7.713h7.713V348.61Z" transform="translate(-22.67 -31.851)" fill="#50b848"/>
    <path id="Path_293" data-name="Path 293" d="M332.332,365.5H316.906v7.713h7.713v15.426h7.713V373.218h7.713V365.5Z" transform="translate(-41.032 -41.032)" fill="#001d4b"/>
    <rect id="Rectangle_37" data-name="Rectangle 37" width="7.713" height="7.713" transform="translate(299.014 316.759)" fill="#50b848"/>
    <rect id="Rectangle_38" data-name="Rectangle 38" width="7.713" height="7.713" transform="translate(275.874 347.612)" fill="#00adee"/>
    <rect id="Rectangle_39" data-name="Rectangle 39" width="0.961" height="92.085" transform="translate(346.141 290)" fill="#001d4b"/>
    <g id="Group_36" data-name="Group 36" transform="translate(359.31 310.563)">
      <path id="Path_294" data-name="Path 294" d="M508.353,345.334h-2.567v-4.065h-3.566v4.065h-2.568V335.35h2.568v3.922h3.566V335.35h2.567Z" transform="translate(-499.653 -335.208)" fill="#50b848"/>
      <path id="Path_295" data-name="Path 295" d="M523.052,345.334h-2.781l3.779-9.984H526.9l3.779,9.984H527.9l-.642-1.783h-3.565Zm1.283-3.637h2.282l-1.141-3.352Z" transform="translate(-510.858 -335.208)" fill="#50b848"/>
      <path id="Path_296" data-name="Path 296" d="M543.49,345.477a7.929,7.929,0,0,1-1.469-.143v-1.925H543.3a.576.576,0,0,0,.571-.328.676.676,0,0,0,.072-.306.594.594,0,0,0-.072-.293l-3.922-7.132h2.852l2.568,5.063,2.139-5.063h2.853l-3.637,7.845a4.356,4.356,0,0,1-1.2,1.682A3.231,3.231,0,0,1,543.49,345.477Z" transform="translate(-521.553 -335.208)" fill="#50b848"/>
      <path id="Path_297" data-name="Path 297" d="M569.443,342.054q-1.711.143-3.23.142a3,3,0,0,1-2.176-.656,2.8,2.8,0,0,1-.656-2.054V335.35h2.567v4.137a.664.664,0,0,0,.713.713q1.17,0,2.781-.142V335.35h2.567v9.984h-2.567Z" transform="translate(-534.286 -335.208)" fill="#50b848"/>
      <path id="Path_298" data-name="Path 298" d="M594.73,345.334h-2.567v-4.065H588.6v4.065H586.03V335.35H588.6v3.922h3.566V335.35h2.567Z" transform="translate(-546.593 -335.208)" fill="#50b848"/>
      <path id="Path_299" data-name="Path 299" d="M617.481,342.454a2.451,2.451,0,0,1-2.853,2.853h-3.566a2.45,2.45,0,0,1-2.852-2.853v-4.564a2.45,2.45,0,0,1,2.852-2.853h3.566a2.451,2.451,0,0,1,2.853,2.853Zm-2.567-4.564a.757.757,0,0,0-.856-.856h-2.425a.756.756,0,0,0-.856.856v4.564a.756.756,0,0,0,.856.856h2.425a.756.756,0,0,0,.856-.856Z" transform="translate(-558.647 -335.038)" fill="#50b848"/>
    </g>
    <g id="Group_37" data-name="Group 37" transform="translate(359.31 324.189)">
      <path id="Path_300" data-name="Path 300" d="M505.216,375.179h-2.567v-7.988h-3v-2h8.558v2h-3Z" transform="translate(-499.653 -365.052)" fill="#001d4b"/>
      <path id="Path_301" data-name="Path 301" d="M528.5,375.179h-7.916V365.2H528.5v2h-5.349v1.926h4.207v2h-4.207v2.068H528.5Z" transform="translate(-511.027 -365.052)" fill="#001d4b"/>
      <path id="Path_302" data-name="Path 302" d="M545.009,365.2h2.852l-3.209,4.992,3.28,4.992H545.08l-2-3.138-2,3.138h-2.853l3.28-4.992-3.209-4.992h2.838l1.94,3.138Z" transform="translate(-520.619 -365.052)" fill="#001d4b"/>
      <path id="Path_303" data-name="Path 303" d="M569.738,375.179h-2.567v-4.065h-3.566v4.065h-2.567V365.2h2.567v3.922h3.566V365.2h2.567Z" transform="translate(-533.012 -365.052)" fill="#001d4b"/>
      <path id="Path_304" data-name="Path 304" d="M592.489,372.3a2.451,2.451,0,0,1-2.853,2.853h-3.566a2.451,2.451,0,0,1-2.853-2.853v-4.564a2.451,2.451,0,0,1,2.853-2.853h3.566a2.451,2.451,0,0,1,2.853,2.853Zm-2.567-4.564a.756.756,0,0,0-.856-.856h-2.425a.756.756,0,0,0-.856.856V372.3a.757.757,0,0,0,.856.856h2.425a.757.757,0,0,0,.856-.856Z" transform="translate(-545.065 -364.882)" fill="#001d4b"/>
      <path id="Path_305" data-name="Path 305" d="M608.138,374.73a1.946,1.946,0,0,1-1.44.592,8.735,8.735,0,0,1-1.612-.142v-1.926h.641a.6.6,0,0,0,.449-.185.69.69,0,0,0,.193-.457l.428-7.416h7.915v9.984h-2.567v-7.988h-3l-.357,5.919A2.46,2.46,0,0,1,608.138,374.73Z" transform="translate(-556.949 -365.052)" fill="#001d4b"/>
      <path id="Path_306" data-name="Path 306" d="M638.567,372.3a2.45,2.45,0,0,1-2.853,2.853h-3.566A2.451,2.451,0,0,1,629.3,372.3v-4.564a2.451,2.451,0,0,1,2.853-2.853h3.566a2.45,2.45,0,0,1,2.853,2.853ZM636,367.735a.757.757,0,0,0-.856-.856h-2.425a.756.756,0,0,0-.856.856V372.3a.756.756,0,0,0,.856.856h2.425A.757.757,0,0,0,636,372.3Z" transform="translate(-570.106 -364.882)" fill="#001d4b"/>
      <path id="Path_307" data-name="Path 307" d="M665.277,375.179H652.725V365.2h2.568v7.987h2.424V365.2h2.568v7.987h2.424V365.2h2.568Z" transform="translate(-582.838 -365.052)" fill="#001d4b"/>
      <path id="Path_308" data-name="Path 308" d="M691.239,364.882a10.1,10.1,0,0,1,1.283.143v1.925h-.57a.607.607,0,0,0-.385.136.974.974,0,0,0-.257.292l-1.355,2.568,2.781,5.063h-2.71l-2.211-4.065h-1.284v4.065h-2.567v-9.984h2.567v3.922h1.284l1.426-2.71a3.094,3.094,0,0,1,.778-.977A1.869,1.869,0,0,1,691.239,364.882Z" transform="translate(-599.815 -364.882)" fill="#001d4b"/>
      <path id="Path_309" data-name="Path 309" d="M713.751,375.179h-2.567v-6.133l-3.423,6.133h-2.71V365.2h2.567v6.133l3.423-6.133h2.71Z" transform="translate(-611.273 -365.052)" fill="#001d4b"/>
    </g>
    <g id="Group_38" data-name="Group 38" transform="translate(359.31 337.815)">
      <path id="Path_310" data-name="Path 310" d="M508.476,405.169h-2.6v-8.1h-3.616v8.1h-2.6V395.044h8.823Z" transform="translate(-499.653 -394.899)" fill="#00adee"/>
      <path id="Path_311" data-name="Path 311" d="M523.381,405.169h-2.82l3.833-10.125h2.893l3.832,10.125H528.3l-.651-1.808h-3.616Zm1.3-3.689H527l-1.157-3.4Z" transform="translate(-511.015 -394.899)" fill="#00adee"/>
      <path id="Path_312" data-name="Path 312" d="M545.271,395.044h6.075a2.485,2.485,0,0,1,2.892,2.893v1.446a2.484,2.484,0,0,1-2.892,2.892h-3.471v2.893h-2.6Zm6.364,2.893a.767.767,0,0,0-.867-.868h-2.893v3.182h2.893a.767.767,0,0,0,.867-.867Z" transform="translate(-524.443 -394.899)" fill="#00adee"/>
      <path id="Path_313" data-name="Path 313" d="M575.14,394.727a10.233,10.233,0,0,1,1.3.145v1.952h-.578a.612.612,0,0,0-.39.138.982.982,0,0,0-.26.3l-1.374,2.6,2.82,5.135H573.91l-2.242-4.123h-1.3V405h-2.6V394.872h2.6v3.977h1.3l1.446-2.748a3.127,3.127,0,0,1,.789-.991A1.9,1.9,0,0,1,575.14,394.727Z" transform="translate(-536.666 -394.727)" fill="#00adee"/>
    </g>
    <g id="Group_39" data-name="Group 39" transform="translate(359.31 351.33)">
      <path id="Path_314" data-name="Path 314" d="M508.535,434.522h-2.621v-4.149h-3.64v4.149h-2.621V424.33h2.621v4h3.64v-4h2.621Z" transform="translate(-499.653 -424.33)" fill="#001d4b"/>
      <path id="Path_315" data-name="Path 315" d="M531.814,434.522h-2.621v-6.26l-3.495,6.26h-2.766V424.33h2.621v6.261l3.495-6.261h2.766Z" transform="translate(-512.304 -424.33)" fill="#001d4b"/>
      <path id="Path_316" data-name="Path 316" d="M559.024,434.522H546.211V424.33h2.621v8.154h2.475V424.33h2.621v8.154H556.4V424.33h2.621Z" transform="translate(-524.954 -424.33)" fill="#001d4b"/>
    </g>
    <line id="Line_4" data-name="Line 4" y2="1.244" transform="translate(351.295 327.943)" fill="#003659"/>
  </g>
</svg>
